<?xml version="1.0" encoding="UTF-8"?>
<svg xmlns="http://www.w3.org/2000/svg" xmlns:xlink="http://www.w3.org/1999/xlink" width="36px" height="24px" viewBox="0 0 36 24" version="1.1">
<g id="surface1">
<path style=" stroke:none;fill-rule:nonzero;fill:rgb(15.686275%,15.686275%,15.686275%);fill-opacity:1;" d="M 28.878906 6.5 C 28.617188 5.515625 27.851562 4.742188 26.871094 4.476562 C 25.101562 4 18 4 18 4 C 18 4 10.898438 4 9.128906 4.476562 C 8.148438 4.742188 7.378906 5.515625 7.121094 6.5 C 6.644531 8.28125 6.644531 12 6.644531 12 C 6.644531 12 6.644531 15.71875 7.121094 17.5 C 7.378906 18.484375 8.148438 19.257812 9.128906 19.523438 C 10.898438 20 18 20 18 20 C 18 20 25.101562 20 26.871094 19.523438 C 27.851562 19.257812 28.617188 18.484375 28.878906 17.5 C 29.355469 15.71875 29.355469 12 29.355469 12 C 29.355469 12 29.355469 8.28125 28.878906 6.5 "/>
<path style=" stroke:none;fill-rule:nonzero;fill:#fff;fill-opacity:1;" d="M 15.675781 15.375 L 21.613281 12 L 15.675781 8.625 Z M 15.675781 15.375 "/>
</g>
</svg>
